<svg width="25" height="27" viewBox="0 0 25 27" fill="none" xmlns="http://www.w3.org/2000/svg">
<g filter="url(#filter0_d_117_1104)">
<path fill-rule="evenodd" clip-rule="evenodd" d="M10.1105 9.6734C10.1656 9.6181 10.2311 9.57424 10.3033 9.5443C10.3754 9.51437 10.4527 9.49896 10.5308 9.49896C10.6089 9.49896 10.6863 9.51437 10.7584 9.5443C10.8305 9.57424 10.8961 9.6181 10.9512 9.6734L12.3121 11.0355L13.673 9.6734C13.7845 9.56191 13.9357 9.49927 14.0933 9.49927C14.251 9.49927 14.4022 9.56191 14.5137 9.6734C14.6252 9.78489 14.6878 9.9361 14.6878 10.0938C14.6878 10.2514 14.6252 10.4027 14.5137 10.5141L13.1517 11.875L14.5137 13.2359C14.6252 13.3474 14.6878 13.4986 14.6878 13.6563C14.6878 13.8139 14.6252 13.9652 14.5137 14.0766C14.4022 14.1881 14.251 14.2508 14.0933 14.2508C13.9357 14.2508 13.7845 14.1881 13.673 14.0766L12.3121 12.7146L10.9512 14.0766C10.8397 14.1881 10.6885 14.2508 10.5308 14.2508C10.3732 14.2508 10.222 14.1881 10.1105 14.0766C9.99898 13.9652 9.93635 13.8139 9.93635 13.6563C9.93635 13.4986 9.99898 13.3474 10.1105 13.2359L11.4725 11.875L10.1105 10.5141C10.0552 10.459 10.0113 10.3935 9.98137 10.3213C9.95144 10.2492 9.93604 10.1719 9.93604 10.0938C9.93604 10.0157 9.95144 9.93834 9.98137 9.86621C10.0113 9.79407 10.0552 9.72855 10.1105 9.6734Z" fill="#9F9F9F"/>
<path d="M12.3125 1.1875C13.0999 1.1875 13.855 1.50028 14.4117 2.05703C14.9685 2.61378 15.2812 3.36889 15.2812 4.15625V4.75H9.34375V4.15625C9.34375 3.36889 9.65653 2.61378 10.2133 2.05703C10.77 1.50028 11.5251 1.1875 12.3125 1.1875ZM16.4688 4.75V4.15625C16.4688 3.05394 16.0309 1.99679 15.2514 1.21734C14.472 0.437889 13.4148 0 12.3125 0C11.2102 0 10.153 0.437889 9.37359 1.21734C8.59414 1.99679 8.15625 3.05394 8.15625 4.15625V4.75H4V16.625C4 17.2549 4.25022 17.859 4.69562 18.3044C5.14102 18.7498 5.74511 19 6.375 19H18.25C18.8799 19 19.484 18.7498 19.9294 18.3044C20.3748 17.859 20.625 17.2549 20.625 16.625V4.75H16.4688ZM5.1875 5.9375H19.4375V16.625C19.4375 16.9399 19.3124 17.242 19.0897 17.4647C18.867 17.6874 18.5649 17.8125 18.25 17.8125H6.375C6.06006 17.8125 5.75801 17.6874 5.53531 17.4647C5.31261 17.242 5.1875 16.9399 5.1875 16.625V5.9375Z" fill="#9F9F9F"/>
</g>
<defs>
<filter id="filter0_d_117_1104" x="0" y="0" width="24.625" height="27" filterUnits="userSpaceOnUse" color-interpolation-filters="sRGB">
<feFlood flood-opacity="0" result="BackgroundImageFix"/>
<feColorMatrix in="SourceAlpha" type="matrix" values="0 0 0 0 0 0 0 0 0 0 0 0 0 0 0 0 0 0 127 0" result="hardAlpha"/>
<feOffset dy="4"/>
<feGaussianBlur stdDeviation="2"/>
<feComposite in2="hardAlpha" operator="out"/>
<feColorMatrix type="matrix" values="0 0 0 0 0 0 0 0 0 0 0 0 0 0 0 0 0 0 0.25 0"/>
<feBlend mode="normal" in2="BackgroundImageFix" result="effect1_dropShadow_117_1104"/>
<feBlend mode="normal" in="SourceGraphic" in2="effect1_dropShadow_117_1104" result="shape"/>
</filter>
</defs>
</svg>
